<svg id="visual" viewBox="0 0 900 600" width="900" height="600" xmlns="http://www.w3.org/2000/svg" xmlns:xlink="http://www.w3.org/1999/xlink" version="1.1">
    <rect x="0" y="0" width="900" height="600" fill="#F1DEC9"></rect>
    <path d="M0 399L21.5 398.3C43 397.7 86 396.3 128.8 401.2C171.7 406 214.3 417 257.2 422.8C300 428.7 343 429.3 385.8 429C428.7 428.7 471.3 427.3 514.2 414.8C557 402.3 600 378.7 642.8 377.3C685.7 376 728.3 397 771.2 397.2C814 397.3 857 376.7 878.5 366.3L900 356L900 601L878.5 601C857 601 814 601 771.2 601C728.3 601 685.7 601 642.8 601C600 601 557 601 514.2 601C471.3 601 428.7 601 385.8 601C343 601 300 601 257.2 601C214.3 601 171.7 601 128.8 601C86 601 43 601 21.5 601L0 601Z" fill="#fee9e8"></path>
    <path d="M0 430L21.5 430.2C43 430.3 86 430.7 128.8 430C171.7 429.3 214.3 427.7 257.2 425.3C300 423 343 420 385.8 424.5C428.7 429 471.3 441 514.2 437C557 433 600 413 642.8 406.7C685.7 400.3 728.3 407.7 771.2 420C814 432.3 857 449.7 878.5 458.3L900 467L900 601L878.5 601C857 601 814 601 771.2 601C728.3 601 685.7 601 642.8 601C600 601 557 601 514.2 601C471.3 601 428.7 601 385.8 601C343 601 300 601 257.2 601C214.3 601 171.7 601 128.8 601C86 601 43 601 21.5 601L0 601Z" fill="#f7dad6"></path>
    <path d="M0 499L21.5 500.2C43 501.3 86 503.7 128.8 494.5C171.7 485.3 214.3 464.7 257.2 457.5C300 450.3 343 456.7 385.8 457C428.7 457.3 471.3 451.7 514.2 453.5C557 455.3 600 464.7 642.8 472.2C685.7 479.7 728.3 485.3 771.2 482.7C814 480 857 469 878.5 463.5L900 458L900 601L878.5 601C857 601 814 601 771.2 601C728.3 601 685.7 601 642.8 601C600 601 557 601 514.2 601C471.3 601 428.7 601 385.8 601C343 601 300 601 257.2 601C214.3 601 171.7 601 128.8 601C86 601 43 601 21.5 601L0 601Z" fill="#eeccc2"></path>
    <path d="M0 497L21.5 497.3C43 497.7 86 498.3 128.8 496.3C171.7 494.3 214.3 489.7 257.2 494.3C300 499 343 513 385.8 521.2C428.7 529.3 471.3 531.7 514.2 526.5C557 521.3 600 508.7 642.8 503.7C685.7 498.7 728.3 501.3 771.2 500.5C814 499.7 857 495.3 878.5 493.2L900 491L900 601L878.5 601C857 601 814 601 771.2 601C728.3 601 685.7 601 642.8 601C600 601 557 601 514.2 601C471.3 601 428.7 601 385.8 601C343 601 300 601 257.2 601C214.3 601 171.7 601 128.8 601C86 601 43 601 21.5 601L0 601Z" fill="#e4bfae"></path>
    <path d="M0 569L21.5 562C43 555 86 541 128.8 539.7C171.7 538.3 214.3 549.7 257.2 557C300 564.3 343 567.7 385.8 567.7C428.7 567.7 471.3 564.3 514.2 560C557 555.7 600 550.3 642.8 548.8C685.7 547.3 728.3 549.7 771.2 550.8C814 552 857 552 878.5 552L900 552L900 601L878.5 601C857 601 814 601 771.2 601C728.3 601 685.7 601 642.8 601C600 601 557 601 514.2 601C471.3 601 428.7 601 385.8 601C343 601 300 601 257.2 601C214.3 601 171.7 601 128.8 601C86 601 43 601 21.5 601L0 601Z" fill="#d8b29a"></path>
</svg>