<svg id="visual" viewBox="0 200 900 500" width="900" height="600" xmlns="http://www.w3.org/2000/svg" xmlns:xlink="http://www.w3.org/1999/xlink" version="1.1">
    <rect x="0" y="0" width="900" height="600" fill="#F1DEC9"></rect>
    <path d="M0 356L21.5 367.5C43 379 86 402 128.8 411.2C171.7 420.3 214.3 415.7 257.2 405.2C300 394.7 343 378.3 385.8 368.3C428.7 358.3 471.3 354.7 514.2 359.3C557 364 600 377 642.8 391C685.7 405 728.3 420 771.2 426.8C814 433.7 857 432.3 878.5 431.7L900 431L900 601L878.5 601C857 601 814 601 771.2 601C728.3 601 685.7 601 642.8 601C600 601 557 601 514.2 601C471.3 601 428.7 601 385.8 601C343 601 300 601 257.2 601C214.3 601 171.7 601 128.8 601C86 601 43 601 21.5 601L0 601Z" fill="#f8e8d5"></path>
    <path d="M0 415L21.5 411.7C43 408.3 86 401.7 128.8 407.2C171.7 412.7 214.3 430.3 257.2 438.8C300 447.3 343 446.7 385.8 447.2C428.7 447.7 471.3 449.3 514.2 443C557 436.7 600 422.3 642.8 412.8C685.7 403.3 728.3 398.7 771.2 400.5C814 402.3 857 410.7 878.5 414.8L900 419L900 601L878.5 601C857 601 814 601 771.2 601C728.3 601 685.7 601 642.8 601C600 601 557 601 514.2 601C471.3 601 428.7 601 385.8 601C343 601 300 601 257.2 601C214.3 601 171.7 601 128.8 601C86 601 43 601 21.5 601L0 601Z" fill="#f9ecdf"></path>
    <path d="M0 462L21.5 469.3C43 476.7 86 491.3 128.8 497.2C171.7 503 214.3 500 257.2 494.2C300 488.3 343 479.7 385.8 477.5C428.7 475.3 471.3 479.7 514.2 485.5C557 491.3 600 498.7 642.8 501.7C685.7 504.7 728.3 503.3 771.2 497.5C814 491.7 857 481.3 878.5 476.2L900 471L900 601L878.5 601C857 601 814 601 771.2 601C728.3 601 685.7 601 642.8 601C600 601 557 601 514.2 601C471.3 601 428.7 601 385.8 601C343 601 300 601 257.2 601C214.3 601 171.7 601 128.8 601C86 601 43 601 21.5 601L0 601Z" fill="#faf1e8"></path>
    <path d="M0 515L21.5 512.5C43 510 86 505 128.8 502.7C171.7 500.3 214.3 500.7 257.2 497.3C300 494 343 487 385.8 488.2C428.7 489.3 471.3 498.7 514.2 504.2C557 509.7 600 511.3 642.8 510.8C685.7 510.3 728.3 507.7 771.2 503C814 498.3 857 491.7 878.5 488.3L900 485L900 601L878.5 601C857 601 814 601 771.2 601C728.3 601 685.7 601 642.8 601C600 601 557 601 514.2 601C471.3 601 428.7 601 385.8 601C343 601 300 601 257.2 601C214.3 601 171.7 601 128.8 601C86 601 43 601 21.5 601L0 601Z" fill="#fbf6f1"></path>
    <path d="M0 564L21.5 557.7C43 551.3 86 538.7 128.8 534.8C171.7 531 214.3 536 257.2 543.5C300 551 343 561 385.8 563.7C428.7 566.3 471.3 561.7 514.2 554.3C557 547 600 537 642.8 534.2C685.7 531.3 728.3 535.7 771.2 537.5C814 539.3 857 538.7 878.5 538.3L900 538L900 601L878.5 601C857 601 814 601 771.2 601C728.3 601 685.7 601 642.8 601C600 601 557 601 514.2 601C471.3 601 428.7 601 385.8 601C343 601 300 601 257.2 601C214.3 601 171.7 601 128.8 601C86 601 43 601 21.5 601L0 601Z" fill="#fbfbfb"></path>
</svg>